<?xml version="1.0" encoding="iso-8859-1"?>
<!-- Uploaded to: SVG Repo, www.svgrepo.com, Generator: SVG Repo Mixer Tools -->
<svg fill="#000000" height="800px" width="800px" version="1.1" id="Layer_1" xmlns="http://www.w3.org/2000/svg" xmlns:xlink="http://www.w3.org/1999/xlink" 
	 viewBox="0 0 511.996 511.996" xml:space="preserve">
<g>
	<g>
		<path d="M353.562,144.32c-7.6-7.865-20.996-12.561-35.837-12.561c-14.927,0-28.364,4.738-35.945,12.675
			c-3.011,3.152-2.897,8.148,0.255,11.159c1.528,1.46,3.49,2.185,5.45,2.185c2.081,0,4.158-0.818,5.708-2.44
			c3.435-3.595,11.919-7.793,24.532-7.793c12.55,0,21.032,4.172,24.485,7.744c3.029,3.134,8.026,3.221,11.159,0.192
			C356.504,152.452,356.591,147.456,353.562,144.32z"/>
	</g>
</g>
<g>
	<g>
		<path d="M230.214,144.433c-7.581-7.937-21.018-12.675-35.944-12.675c-14.841,0-28.237,4.696-35.838,12.561
			c-3.029,3.135-2.943,8.132,0.193,11.16c3.132,3.03,8.129,2.942,11.158-0.19c3.452-3.573,11.936-7.744,24.486-7.744
			c12.611,0,21.096,4.198,24.531,7.793c1.55,1.623,3.626,2.44,5.708,2.44c1.959,0,3.922-0.725,5.451-2.186
			C233.111,152.582,233.226,147.585,230.214,144.433z"/>
	</g>
</g>
<g>
	<g>
		<circle cx="317.688" cy="178.114" r="12.222"/>
	</g>
</g>
<g>
	<g>
		<circle cx="194.307" cy="178.114" r="12.222"/>
	</g>
</g>
<g>
	<g>
		<path d="M291.575,286.72c-7.262-6.134-19.41-9.798-32.495-9.798c-13.086,0-25.235,3.662-32.497,9.8
			c-3.329,2.813-3.749,7.793-0.935,11.123c1.561,1.848,3.79,2.798,6.032,2.798c1.797,0,3.608-0.611,5.089-1.864
			c10.4-8.786,34.13-8.86,44.617,0c3.331,2.814,8.31,2.392,11.122-0.937C295.325,294.513,294.905,289.533,291.575,286.72z"/>
	</g>
</g>
<g>
	<g>
		<path d="M360.644,236.576c-1.864-2.833-5.33-4.163-8.604-3.297c-8.552,2.25-16.108,3.392-22.458,3.392
			c-14.138,0-20.922-5.31-29.512-12.033c-3.731-2.919-7.563-5.904-12.11-8.515c0.028-0.528,0.046-1.06,0.046-1.595v-9.964
			c0-15.952-12.978-28.93-28.931-28.93c-15.952,0-28.93,12.978-28.93,28.93v9.964h0.002c0,0.536,0.017,1.066,0.046,1.594
			c-4.546,2.611-8.379,5.595-12.11,8.515c-8.592,6.723-15.378,12.033-29.513,12.034c-6.44,0-13.785-1.109-22.458-3.392
			c-3.281-0.865-6.743,0.465-8.604,3.298c-1.863,2.833-1.707,6.539,0.386,9.207c0.89,1.134,22.143,27.78,52.511,27.78
			c17.373,0,33.713-8.573,48.669-25.507c14.958,16.936,31.297,25.507,48.67,25.507c30.373,0,51.622-26.646,52.511-27.781
			C362.351,243.115,362.507,239.409,360.644,236.576z M210.41,257.777c-7.342,0-14.129-2.273-19.951-5.348
			c18.371-0.506,28.437-8.383,37.355-15.36c2.587-2.025,5.094-3.985,7.747-5.726c2.519,3.514,5.802,6.445,9.608,8.541
			C233.971,251.768,222.314,257.777,210.41,257.777z M272.224,214.526c0,7.006-6.114,13.144-13.145,13.144
			c-7.048,0-13.144-6.094-13.144-13.144v-9.964c0-7.248,5.897-13.144,13.144-13.144c7.249,0,13.145,5.896,13.145,13.144
			C272.224,204.563,272.224,214.522,272.224,214.526z M307.749,257.778c-11.904,0-23.562-6.01-34.76-17.892
			c3.807-2.096,7.089-5.027,9.609-8.542c2.653,1.74,5.16,3.7,7.745,5.726c8.928,6.987,19.011,14.876,37.433,15.363
			C321.955,255.506,315.149,257.778,307.749,257.778z"/>
	</g>
</g>
<g>
	<g>
		<path d="M494.092,352.011c-2.404-3.636-7.3-4.635-10.937-2.23c-3.636,2.404-4.635,7.301-2.23,10.937
			c5.509,8.333,8.422,18.03,8.422,28.045c0,5.783-0.954,11.413-2.844,16.796h-96.181c-0.167-0.476-0.318-0.956-0.469-1.435
			c-0.017-0.059-0.022-0.12-0.041-0.179c-3.304-10.556-3.065-22.13,0.715-32.529c0.055-0.153,0.115-0.303,0.172-0.455
			c7.236-19.33,25.892-33.131,47.716-33.131c7.617,0,14.95,1.646,21.795,4.891c3.94,1.867,8.646,0.192,10.513-3.75
			c1.868-3.938,0.189-8.645-3.75-10.513c-8.975-4.257-18.583-6.415-28.559-6.415c-12.947,0-25.037,3.719-35.28,10.128
			c-7.687-9.658-17.874-17.008-29.315-21.315c38.347-8.359,70.27-18.407,70.614-18.517c2.919-0.923,5.143-3.384,5.546-6.421
			c0.4-3.015-0.868-5.924-3.412-7.581c-0.506-0.393-5.025-4.041-9.661-12.74c-4.479-8.406-9.927-23.311-10.899-46.825
			c4.186-8.659,6.5-18.322,6.5-28.416v-3.969c0-7.955-2.472-15.34-6.679-21.441c-1.266-43.853-19.143-84.932-50.532-115.915
			C343.263,17.414,300.895,0,255.996,0c-44.898,0-87.266,17.414-119.299,49.033c-31.389,30.984-49.267,72.062-50.532,115.916
			c-4.207,6.1-6.678,13.485-6.678,21.439v3.969c0,10.093,2.314,19.755,6.499,28.414c-0.971,23.515-6.419,38.42-10.898,46.828
			c-4.635,8.7-9.154,12.347-9.661,12.74c-2.544,1.658-3.812,4.566-3.412,7.581c0.403,3.036,2.626,5.498,5.546,6.421
			c0.344,0.109,32.267,10.158,70.614,18.517c-11.441,4.306-21.628,11.657-29.315,21.314c-10.243-6.408-22.331-10.128-35.279-10.128
			c-36.789,0-66.718,29.93-66.718,66.718c0,9.756,2.074,19.178,6.163,28.006c5.143,11.104,13.159,20.349,22.911,27.019v59.812
			c0,4.36,3.533,7.893,7.893,7.893h56.74c0.861,0.322,1.789,0.506,2.761,0.506h305.334c0.973,0,1.902-0.184,2.763-0.506h56.739
			c4.36,0,7.893-3.533,7.893-7.893v-59.812c9.752-6.67,17.769-15.915,22.917-27.029c4.083-8.825,6.156-18.244,6.156-27.993
			C505.132,375.642,501.314,362.933,494.092,352.011z M427.833,280.832c-11.009,3.191-28.724,8.076-48.965,12.722
			c0.364-0.083,1.292-2.674,1.488-3.088c5.901-12.423,10.079-25.899,12.059-39.6c0.017-0.117,0.04-0.232,0.057-0.348
			c0.028-0.012,0.056-0.025,0.085-0.038c4.729-1.982,9.23-4.522,13.36-7.563c0.66-0.486,6.208-4.056,6.059-5.027
			C415.231,259.01,422.047,272.631,427.833,280.832z M416.722,190.358c0,8.254-2.05,16.12-5.712,23.068
			c-4.008,7.571-10.002,13.988-17.166,18.582c0.002-0.321,0.004-0.642,0.004-0.962v-61.117c0-1.7-0.042-3.39-0.103-5.075
			c-0.006-0.179-0.004-0.358-0.011-0.539c0-0.134,1.366,0.055,2.979,0.329C410.17,166.933,416.722,177.121,416.722,190.358z
			 M95.271,186.389c0-5.312,1.887-10.191,5.025-14.004c0.022-0.027,0.046-0.054,0.068-0.081c0.888-1.068,1.871-2.053,2.942-2.938
			c0.003-0.002,0.005-0.004,0.008-0.006c2.157-1.781,4.659-3.156,7.387-4.019c0.052-0.017,0.104-0.034,0.156-0.049
			c0.631-0.195,1.276-0.36,1.93-0.498c0.086-0.018,0.174-0.035,0.261-0.052c0.646-0.128,1.302-0.23,1.967-0.301
			c0.076-0.008,0.152-0.012,0.227-0.019c0.692-0.065,1.391-0.106,2.101-0.106h0.914c-0.002,0.063-0.001,0.126-0.004,0.188
			c-0.07,1.804-0.11,3.612-0.11,5.425v61.117c0,0.321,0.001,0.641,0.004,0.962c-7.158-4.591-13.147-11.004-17.156-18.567
			c-3.668-6.951-5.721-14.824-5.721-23.083V186.389z M84.213,280.848c1.313-1.856,2.678-3.99,4.039-6.425
			c5.705-10.208,9.647-22.433,11.788-36.509c-0.175,1.15,6.787,5.563,7.773,6.237c3.649,2.494,7.551,4.628,11.629,6.333
			c0.026,0.012,0.053,0.024,0.079,0.035c0.013,0.086,0.029,0.173,0.042,0.259c2.142,14.762,6.759,29.4,13.561,42.775
			C112.929,288.918,95.229,284.038,84.213,280.848z M133.931,231.046v-61.117c0-24.014,7.206-47.869,20.569-67.827
			c0.909-1.359,1.342-2.897,1.335-4.417c-0.011-2.534-1.238-5.018-3.502-6.533c-3.62-2.425-8.524-1.455-10.949,2.167
			c-11.072,16.535-18.498,35.55-21.58,55.212c-5.789,0-11.432,0.605-16.83,2.818c4.135-34.438,19.718-66.313,44.811-91.081
			c29.06-28.686,67.49-44.483,108.21-44.483c40.721,0,79.151,15.797,108.21,44.482c25.093,24.769,40.675,56.644,44.811,91.079
			c-0.135-1.01-6.019-1.889-6.765-2.038c-0.808-0.162-10.088-0.952-10.061-0.778c-4.838-30.998-20.148-59.439-43.589-80.713
			c-16.723-15.175-36.695-25.859-58.185-31.388c-0.047-0.013-0.095-0.023-0.143-0.035c-11.187-2.872-22.73-4.316-34.279-4.316
			c-34.363,0-67.282,12.719-92.691,35.814c-2.821,2.566-3.357,6.708-1.483,9.864c0.268,0.451,0.585,0.883,0.952,1.287
			c2.933,3.224,7.924,3.464,11.15,0.531c22.497-20.45,51.644-31.711,82.072-31.711c33.53,0,66.03,14.15,88.963,38.571
			c38.246,40.726,33.101,92.945,33.101,144.611c0,65.789-55.69,122.065-122.065,122.065c-9.35,0-18.725-1.051-27.826-3.207
			C174.257,337.13,133.931,286.451,133.931,231.046z M25.49,405.559c-1.888-5.381-2.842-11.011-2.842-16.796
			c-0.001-28.084,22.848-50.933,50.933-50.933c18.783,0,36.405,10.724,45.127,27.346c6.217,11.85,7.466,26.007,3.473,38.769
			c-0.018,0.058-0.023,0.118-0.04,0.176c-0.153,0.48-0.303,0.961-0.47,1.438H25.49z M95.437,495.708H51.721
			c0-0.001,0-43.906,0-43.904c0.06,2.607,20.557,3.678,21.859,3.678c7.407,0,14.858-1.253,21.857-3.68V495.708z M85.457,438.264
			c-3.878,0.938-7.885,1.431-11.877,1.431c-4.008,0-7.982-0.489-11.876-1.431c-10.645-2.574-20.23-8.525-27.247-16.921h78.246v0.001
			C105.686,429.739,96.101,435.69,85.457,438.264z M227.837,495.706h-13.415v-33.77c0-4.36-3.533-7.893-7.893-7.893
			c-4.36,0-7.893,3.533-7.893,7.893v34.276h-87.414v-51.866c9.949-6.797,17.821-16.078,22.913-27.073
			c0.792-1.713,1.528-3.518,2.198-5.391c16.935-11.024,38.362-19.345,62.303-24.459v43.086c0,4.36,3.533,7.893,7.893,7.893
			c4.36,0,7.893-3.533,7.893-7.893V384.57c4.409-0.656,8.885-1.205,13.415-1.65V495.706z M222.436,367.129
			c-21.017,2.338-41.888,6.945-61.67,14.485c-7.003,2.669-13.865,5.714-20.499,9.2c0.709-0.373-0.149-6.933-0.219-7.731
			c-1.343-15.397-8.018-30.041-18.867-41.066c7.985-10.052,19.488-16.879,32.138-19.003c14.345,16.012,32.003,28.231,51.501,36.026
			c7.94,3.184,16.174,5.622,24.569,7.269c0.119,0.023,0.236,0.053,0.354,0.076C227.7,365.99,224.504,366.899,222.436,367.129z
			 M268.37,495.707h-24.747V381.811c4.095-0.174,8.22-0.265,12.373-0.265c4.153,0,8.279,0.092,12.374,0.265V495.707z
			 M282.612,366.307c8.384-1.647,16.623-4.082,24.553-7.265c19.499-7.795,37.16-20.015,51.506-36.029
			c12.654,2.125,24.155,8.95,32.14,19.004c-8.226,8.36-14.023,18.644-16.944,29.851c-0.026,0.1-0.056,0.198-0.082,0.297
			c-0.807,3.132-1.379,6.325-1.719,9.541c-0.102,0.969-1.193,8.66-0.34,9.108c-21.763-11.433-48.383-19.362-77.264-23.106
			c-1.649-0.214-3.301-0.408-4.953-0.597c-2.414-0.276-4.838-0.516-7.259-0.726C282.37,366.362,282.49,366.331,282.612,366.307z
			 M297.57,495.707h-13.415V382.921c4.529,0.445,9.005,0.994,13.415,1.65V495.707z M400.77,496.214h-87.414V387.423
			c23.939,5.115,45.367,13.435,62.301,24.458c0.671,1.875,1.408,3.682,2.202,5.394c5.091,10.991,12.962,20.273,22.912,27.072
			V496.214z M460.271,495.707h-43.715c0,0,0-43.906,0-43.904c0.021,2.681,20.365,3.679,21.858,3.679
			c7.405-0.001,14.861-1.256,21.857-3.681V495.707z M474.385,424.78c-6.53,6.499-15.036,11.274-24.097,13.475
			c-3.886,0.943-7.892,1.442-11.875,1.442c-13.084,0-26.015-5.294-35.421-14.374c-0.569-0.549-3.094-3.978-3.703-3.978
			c0,0,78.243,0,78.247,0C477.009,421.344,474.864,424.304,474.385,424.78z"/>
	</g>
</g>
</svg>